{"accessors":[{"bufferView":0,"byteOffset":0,"componentType":5126,"count":116,"max":[-0.012382499999999998,0.013970000000000002,-0.03555999999999999],"min":[-0.02634719568913857,-0.013970000000000003,-0.036195],"type":"VEC3"},{"bufferView":0,"byteOffset":1392,"componentType":5126,"count":232,"max":[0.026347195689138576,0.013970000000000002,-0.036194999999999984],"min":[-0.02634719568913857,-0.013970000000000002,-0.036195000000000005],"type":"VEC3"},{"bufferView":0,"byteOffset":4176,"componentType":5126,"count":4,"max":[0.012382500000000001,-0.013970000000000002,-0.035559999999999994],"min":[-0.012382499999999998,-0.013970000000000003,-0.036195],"type":"VEC3"},{"bufferView":0,"byteOffset":4224,"componentType":5126,"count":116,"max":[-0.012382499999999998,0.013970000000000003,0.03556000000000001],"min":[-0.02634719568913857,-0.013970000000000003,-0.03556000000000001],"type":"VEC3"},{"bufferView":0,"byteOffset":5616,"componentType":5126,"count":4,"max":[0.012382500000000005,0.013970000000000002,-0.03556000000000001],"min":[-0.0123825,0.01397,-0.036195],"type":"VEC3"},{"bufferView":0,"byteOffset":5664,"componentType":5126,"count":116,"max":[0.026347195689138576,0.013970000000000002,-0.03555999999999999],"min":[0.012382500000000001,-0.013970000000000003,-0.036195],"type":"VEC3"},{"bufferView":0,"byteOffset":7056,"componentType":5126,"count":116,"max":[-0.012382499999999998,0.007620000000000005,-0.03556],"min":[-0.019999606739530138,-0.007620000000000005,-0.036195000000000005],"type":"VEC3"},{"bufferView":0,"byteOffset":8448,"componentType":5126,"count":4,"max":[0.012382500000000001,0.007620000000000005,-0.03556],"min":[-0.012382500000000001,0.007620000000000005,-0.036195],"type":"VEC3"},{"bufferView":0,"byteOffset":8496,"componentType":5126,"count":116,"max":[0.019999606739530145,0.007620000000000005,-0.03556],"min":[0.012382500000000001,-0.007620000000000006,-0.036195000000000005],"type":"VEC3"},{"bufferView":0,"byteOffset":9888,"componentType":5126,"count":4,"max":[0.012382500000000005,-0.007620000000000005,-0.03556],"min":[-0.012382499999999998,-0.007620000000000006,-0.036195],"type":"VEC3"},{"bufferView":0,"byteOffset":9936,"componentType":5126,"count":4,"max":[0.012382500000000001,-0.01397,0.03556000000000001],"min":[-0.012382499999999998,-0.013970000000000003,-0.035559999999999994],"type":"VEC3"},{"bufferView":0,"byteOffset":9984,"componentType":5126,"count":116,"max":[-0.012382499999999998,0.013970000000000003,0.036195],"min":[-0.02634719568913857,-0.013970000000000002,0.03555999999999999],"type":"VEC3"},{"bufferView":0,"byteOffset":11376,"componentType":5126,"count":4,"max":[0.012382500000000005,0.013970000000000003,0.035559999999999994],"min":[-0.0123825,0.01397,-0.03556000000000001],"type":"VEC3"},{"bufferView":0,"byteOffset":11424,"componentType":5126,"count":116,"max":[0.026347195689138576,0.013970000000000003,0.03556000000000001],"min":[0.012382500000000001,-0.013970000000000003,-0.03556000000000001],"type":"VEC3"},{"bufferView":0,"byteOffset":12816,"componentType":5126,"count":116,"max":[0.019999606739530145,0.007620000000000005,-0.03556],"min":[-0.019999606739530138,-0.007620000000000006,-0.03556],"type":"VEC3"},{"bufferView":0,"byteOffset":14208,"componentType":5126,"count":4,"max":[0.012382500000000001,-0.01397,0.036195],"min":[-0.012382499999999998,-0.013970000000000002,0.03556000000000001],"type":"VEC3"},{"bufferView":0,"byteOffset":14256,"componentType":5126,"count":232,"max":[0.026347195689138576,0.013970000000000002,0.036195],"min":[-0.02634719568913857,-0.013970000000000002,0.036194999999999984],"type":"VEC3"},{"bufferView":0,"byteOffset":17040,"componentType":5126,"count":4,"max":[0.012382500000000005,0.013970000000000003,0.036195],"min":[-0.0123825,0.013970000000000002,0.035559999999999994],"type":"VEC3"},{"bufferView":0,"byteOffset":17088,"componentType":5126,"count":116,"max":[0.026347195689138576,0.013970000000000003,0.036195],"min":[0.012382500000000001,-0.013970000000000002,0.03555999999999999],"type":"VEC3"},{"bufferView":0,"byteOffset":18480,"componentType":5126,"count":116,"max":[-0.012382499999999998,0.007619999999999973,0.036195],"min":[-0.019999606739530138,-0.007620000000000037,0.035559999999999994],"type":"VEC3"},{"bufferView":0,"byteOffset":19872,"componentType":5126,"count":4,"max":[0.012382500000000001,0.007619999999999973,0.036195],"min":[-0.012382500000000001,0.007619999999999973,0.035559999999999994],"type":"VEC3"},{"bufferView":0,"byteOffset":19920,"componentType":5126,"count":116,"max":[0.019999606739530145,0.007619999999999973,0.036195],"min":[0.012382500000000001,-0.007620000000000038,0.035559999999999994],"type":"VEC3"},{"bufferView":0,"byteOffset":21312,"componentType":5126,"count":4,"max":[0.012382500000000005,-0.007620000000000037,0.036195],"min":[-0.012382499999999998,-0.007620000000000038,0.035559999999999994],"type":"VEC3"},{"bufferView":0,"byteOffset":21360,"componentType":5126,"count":116,"max":[0.019999606739530145,0.007619999999999973,0.035559999999999994],"min":[-0.019999606739530138,-0.007620000000000038,0.035559999999999994],"type":"VEC3"},{"bufferView":1,"byteOffset":0,"componentType":5126,"count":116,"type":"VEC3"},{"bufferView":1,"byteOffset":1392,"componentType":5126,"count":232,"type":"VEC3"},{"bufferView":1,"byteOffset":4176,"componentType":5126,"count":4,"type":"VEC3"},{"bufferView":1,"byteOffset":4224,"componentType":5126,"count":116,"type":"VEC3"},{"bufferView":1,"byteOffset":5616,"componentType":5126,"count":4,"type":"VEC3"},{"bufferView":1,"byteOffset":5664,"componentType":5126,"count":116,"type":"VEC3"},{"bufferView":1,"byteOffset":7056,"componentType":5126,"count":116,"type":"VEC3"},{"bufferView":1,"byteOffset":8448,"componentType":5126,"count":4,"type":"VEC3"},{"bufferView":1,"byteOffset":8496,"componentType":5126,"count":116,"type":"VEC3"},{"bufferView":1,"byteOffset":9888,"componentType":5126,"count":4,"type":"VEC3"},{"bufferView":1,"byteOffset":9936,"componentType":5126,"count":4,"type":"VEC3"},{"bufferView":1,"byteOffset":9984,"componentType":5126,"count":116,"type":"VEC3"},{"bufferView":1,"byteOffset":11376,"componentType":5126,"count":4,"type":"VEC3"},{"bufferView":1,"byteOffset":11424,"componentType":5126,"count":116,"type":"VEC3"},{"bufferView":1,"byteOffset":12816,"componentType":5126,"count":116,"type":"VEC3"},{"bufferView":1,"byteOffset":14208,"componentType":5126,"count":4,"type":"VEC3"},{"bufferView":1,"byteOffset":14256,"componentType":5126,"count":232,"type":"VEC3"},{"bufferView":1,"byteOffset":17040,"componentType":5126,"count":4,"type":"VEC3"},{"bufferView":1,"byteOffset":17088,"componentType":5126,"count":116,"type":"VEC3"},{"bufferView":1,"byteOffset":18480,"componentType":5126,"count":116,"type":"VEC3"},{"bufferView":1,"byteOffset":19872,"componentType":5126,"count":4,"type":"VEC3"},{"bufferView":1,"byteOffset":19920,"componentType":5126,"count":116,"type":"VEC3"},{"bufferView":1,"byteOffset":21312,"componentType":5126,"count":4,"type":"VEC3"},{"bufferView":1,"byteOffset":21360,"componentType":5126,"count":116,"type":"VEC3"},{"bufferView":2,"byteOffset":0,"componentType":5123,"count":342,"type":"SCALAR"},{"bufferView":2,"byteOffset":684,"componentType":5123,"count":696,"type":"SCALAR"},{"bufferView":2,"byteOffset":2076,"componentType":5123,"count":6,"type":"SCALAR"},{"bufferView":2,"byteOffset":2088,"componentType":5123,"count":342,"type":"SCALAR"},{"bufferView":2,"byteOffset":2772,"componentType":5123,"count":6,"type":"SCALAR"},{"bufferView":2,"byteOffset":2784,"componentType":5123,"count":342,"type":"SCALAR"},{"bufferView":2,"byteOffset":3468,"componentType":5123,"count":342,"type":"SCALAR"},{"bufferView":2,"byteOffset":4152,"componentType":5123,"count":6,"type":"SCALAR"},{"bufferView":2,"byteOffset":4164,"componentType":5123,"count":342,"type":"SCALAR"},{"bufferView":2,"byteOffset":4848,"componentType":5123,"count":6,"type":"SCALAR"},{"bufferView":2,"byteOffset":4860,"componentType":5123,"count":6,"type":"SCALAR"},{"bufferView":2,"byteOffset":4872,"componentType":5123,"count":342,"type":"SCALAR"},{"bufferView":2,"byteOffset":5556,"componentType":5123,"count":6,"type":"SCALAR"},{"bufferView":2,"byteOffset":5568,"componentType":5123,"count":342,"type":"SCALAR"},{"bufferView":2,"byteOffset":6252,"componentType":5123,"count":342,"type":"SCALAR"},{"bufferView":2,"byteOffset":6936,"componentType":5123,"count":6,"type":"SCALAR"},{"bufferView":2,"byteOffset":6948,"componentType":5123,"count":696,"type":"SCALAR"},{"bufferView":2,"byteOffset":8340,"componentType":5123,"count":6,"type":"SCALAR"},{"bufferView":2,"byteOffset":8352,"componentType":5123,"count":342,"type":"SCALAR"},{"bufferView":2,"byteOffset":9036,"componentType":5123,"count":342,"type":"SCALAR"},{"bufferView":2,"byteOffset":9720,"componentType":5123,"count":6,"type":"SCALAR"},{"bufferView":2,"byteOffset":9732,"componentType":5123,"count":342,"type":"SCALAR"},{"bufferView":2,"byteOffset":10416,"componentType":5123,"count":6,"type":"SCALAR"},{"bufferView":2,"byteOffset":10428,"componentType":5123,"count":342,"type":"SCALAR"}],"asset":{"generator":"Open CASCADE Technology 7.8 [dev.opencascade.org]","version":"2.0"},"bufferViews":[{"buffer":0,"byteLength":22752,"byteOffset":0,"byteStride":12,"target":34962},{"buffer":0,"byteLength":22752,"byteOffset":22752,"byteStride":12,"target":34962},{"buffer":0,"byteLength":11112,"byteOffset":45504,"target":34963}],"buffers":[{"byteLength":56616,"uri":"Battery-Battery.bin"}],"materials":[{"name":"mat_0","pbrMetallicRoughness":{"baseColorFactor":[0.16826939582824707,0.19120168685913086,0.2158605307340622,1.0]},"doubleSided":true}],"meshes":[{"name":"Body","primitives":[{"attributes":{"NORMAL":24,"POSITION":0},"indices":48,"material":0,"mode":4},{"attributes":{"NORMAL":25,"POSITION":1},"indices":49,"material":0,"mode":4},{"attributes":{"NORMAL":26,"POSITION":2},"indices":50,"material":0,"mode":4},{"attributes":{"NORMAL":27,"POSITION":3},"indices":51,"material":0,"mode":4},{"attributes":{"NORMAL":28,"POSITION":4},"indices":52,"material":0,"mode":4},{"attributes":{"NORMAL":29,"POSITION":5},"indices":53,"material":0,"mode":4},{"attributes":{"NORMAL":30,"POSITION":6},"indices":54,"material":0,"mode":4},{"attributes":{"NORMAL":31,"POSITION":7},"indices":55,"material":0,"mode":4},{"attributes":{"NORMAL":32,"POSITION":8},"indices":56,"material":0,"mode":4},{"attributes":{"NORMAL":33,"POSITION":9},"indices":57,"material":0,"mode":4},{"attributes":{"NORMAL":34,"POSITION":10},"indices":58,"material":0,"mode":4},{"attributes":{"NORMAL":35,"POSITION":11},"indices":59,"material":0,"mode":4},{"attributes":{"NORMAL":36,"POSITION":12},"indices":60,"material":0,"mode":4},{"attributes":{"NORMAL":37,"POSITION":13},"indices":61,"material":0,"mode":4},{"attributes":{"NORMAL":38,"POSITION":14},"indices":62,"material":0,"mode":4},{"attributes":{"NORMAL":39,"POSITION":15},"indices":63,"material":0,"mode":4},{"attributes":{"NORMAL":40,"POSITION":16},"indices":64,"material":0,"mode":4},{"attributes":{"NORMAL":41,"POSITION":17},"indices":65,"material":0,"mode":4},{"attributes":{"NORMAL":42,"POSITION":18},"indices":66,"material":0,"mode":4},{"attributes":{"NORMAL":43,"POSITION":19},"indices":67,"material":0,"mode":4},{"attributes":{"NORMAL":44,"POSITION":20},"indices":68,"material":0,"mode":4},{"attributes":{"NORMAL":45,"POSITION":21},"indices":69,"material":0,"mode":4},{"attributes":{"NORMAL":46,"POSITION":22},"indices":70,"material":0,"mode":4},{"attributes":{"NORMAL":47,"POSITION":23},"indices":71,"material":0,"mode":4}]}],"nodes":[{"children":[1],"name":"Battery"},{"mesh":0,"name":"Body"}],"scene":0,"scenes":[{"nodes":[0]}]}