{"accessors":[{"bufferView":0,"byteOffset":0,"componentType":5126,"count":16,"max":[0.0105,0.0,0.0105],"min":[-0.0105,0.0,-0.0105],"type":"VEC3"},{"bufferView":0,"byteOffset":192,"componentType":5126,"count":4,"max":[0.009738,0.0,0.0105],"min":[-0.009738,-0.000889,0.0105],"type":"VEC3"},{"bufferView":0,"byteOffset":240,"componentType":5126,"count":4,"max":[-0.009738,0.0,0.0105],"min":[-0.0105,-0.000889,0.009738],"type":"VEC3"},{"bufferView":0,"byteOffset":288,"componentType":5126,"count":4,"max":[0.0105,0.0,0.0105],"min":[0.009738,-0.000889,0.009738],"type":"VEC3"},{"bufferView":0,"byteOffset":336,"componentType":5126,"count":4,"max":[-0.0105,0.0,0.009738],"min":[-0.0105,-0.000889,-0.009738],"type":"VEC3"},{"bufferView":0,"byteOffset":384,"componentType":5126,"count":4,"max":[0.0105,0.0,0.009738],"min":[0.0105,-0.000889,-0.009738],"type":"VEC3"},{"bufferView":0,"byteOffset":432,"componentType":5126,"count":4,"max":[-0.009738,0.0,-0.009738],"min":[-0.0105,-0.000889,-0.0105],"type":"VEC3"},{"bufferView":0,"byteOffset":480,"componentType":5126,"count":4,"max":[0.0105,0.0,-0.009738],"min":[0.009738,-0.000889,-0.0105],"type":"VEC3"},{"bufferView":0,"byteOffset":528,"componentType":5126,"count":4,"max":[0.009738,0.0,-0.0105],"min":[-0.009738,-0.000889,-0.0105],"type":"VEC3"},{"bufferView":0,"byteOffset":576,"componentType":5126,"count":4,"max":[0.007730000000000001,0.004200000000000001,0.009000000000000001],"min":[-0.007730000000000001,0.0,0.009000000000000001],"type":"VEC3"},{"bufferView":0,"byteOffset":624,"componentType":5126,"count":4,"max":[-0.007730000000000001,0.004200000000000001,0.009000000000000001],"min":[-0.009000000000000001,0.0,0.007730000000000001],"type":"VEC3"},{"bufferView":0,"byteOffset":672,"componentType":5126,"count":4,"max":[0.009000000000000001,0.004200000000000001,0.009000000000000001],"min":[0.007730000000000001,0.0,0.007730000000000001],"type":"VEC3"},{"bufferView":0,"byteOffset":720,"componentType":5126,"count":4,"max":[-0.009000000000000001,0.004200000000000001,0.007730000000000001],"min":[-0.009000000000000001,0.0,-0.007730000000000001],"type":"VEC3"},{"bufferView":0,"byteOffset":768,"componentType":5126,"count":4,"max":[0.009000000000000001,0.004200000000000001,0.007730000000000001],"min":[0.009000000000000001,0.0,-0.007730000000000001],"type":"VEC3"},{"bufferView":0,"byteOffset":816,"componentType":5126,"count":4,"max":[-0.007730000000000001,0.004200000000000001,-0.007730000000000001],"min":[-0.009000000000000001,0.0,-0.009000000000000001],"type":"VEC3"},{"bufferView":0,"byteOffset":864,"componentType":5126,"count":4,"max":[0.009000000000000001,0.004200000000000001,-0.007730000000000001],"min":[0.007730000000000001,0.0,-0.009000000000000001],"type":"VEC3"},{"bufferView":0,"byteOffset":912,"componentType":5126,"count":4,"max":[0.007730000000000001,0.004200000000000001,-0.009000000000000001],"min":[-0.007730000000000001,0.0,-0.009000000000000001],"type":"VEC3"},{"bufferView":0,"byteOffset":960,"componentType":5126,"count":16,"max":[0.0105,-0.000889,0.0105],"min":[-0.0105,-0.000889,-0.0105],"type":"VEC3"},{"bufferView":0,"byteOffset":1152,"componentType":5126,"count":8,"max":[0.009000000000000001,0.004200000000000001,0.009000000000000001],"min":[-0.009000000000000001,0.004200000000000001,-0.009000000000000001],"type":"VEC3"},{"bufferView":0,"byteOffset":1248,"componentType":5126,"count":4,"max":[0.00135,-0.000889,0.01019375],"min":[-0.00865,-0.0038889999999999997,0.01019375],"type":"VEC3"},{"bufferView":0,"byteOffset":1296,"componentType":5126,"count":4,"max":[0.00135,-0.000889,0.01019375],"min":[0.00135,-0.0038889999999999997,0.0041937499999999996],"type":"VEC3"},{"bufferView":0,"byteOffset":1344,"componentType":5126,"count":4,"max":[0.00135,-0.000889,0.0041937499999999996],"min":[-0.00865,-0.0038889999999999997,0.0041937499999999996],"type":"VEC3"},{"bufferView":0,"byteOffset":1392,"componentType":5126,"count":4,"max":[-0.00865,-0.000889,0.01019375],"min":[-0.00865,-0.0038889999999999997,0.0041937499999999996],"type":"VEC3"},{"bufferView":0,"byteOffset":1440,"componentType":5126,"count":4,"max":[-0.00865,-0.000889,0.0034],"min":[-0.00865,-0.0038889999999999997,-0.009000000000000001],"type":"VEC3"},{"bufferView":0,"byteOffset":1488,"componentType":5126,"count":4,"max":[0.00865,-0.000889,0.0034],"min":[-0.00865,-0.0038889999999999997,0.0034],"type":"VEC3"},{"bufferView":0,"byteOffset":1536,"componentType":5126,"count":4,"max":[0.00865,-0.000889,0.0034],"min":[0.00865,-0.0038889999999999997,-0.009000000000000001],"type":"VEC3"},{"bufferView":0,"byteOffset":1584,"componentType":5126,"count":4,"max":[0.00865,-0.000889,-0.009000000000000001],"min":[-0.00865,-0.0038889999999999997,-0.009000000000000001],"type":"VEC3"},{"bufferView":0,"byteOffset":1632,"componentType":5126,"count":4,"max":[0.00135,-0.0038889999999999997,0.01019375],"min":[-0.00865,-0.0038889999999999997,0.0041937499999999996],"type":"VEC3"},{"bufferView":0,"byteOffset":1680,"componentType":5126,"count":4,"max":[0.00865,-0.0038889999999999997,0.0034],"min":[-0.00865,-0.0038889999999999997,-0.009000000000000001],"type":"VEC3"},{"bufferView":1,"byteOffset":0,"componentType":5126,"count":16,"type":"VEC3"},{"bufferView":1,"byteOffset":192,"componentType":5126,"count":4,"type":"VEC3"},{"bufferView":1,"byteOffset":240,"componentType":5126,"count":4,"type":"VEC3"},{"bufferView":1,"byteOffset":288,"componentType":5126,"count":4,"type":"VEC3"},{"bufferView":1,"byteOffset":336,"componentType":5126,"count":4,"type":"VEC3"},{"bufferView":1,"byteOffset":384,"componentType":5126,"count":4,"type":"VEC3"},{"bufferView":1,"byteOffset":432,"componentType":5126,"count":4,"type":"VEC3"},{"bufferView":1,"byteOffset":480,"componentType":5126,"count":4,"type":"VEC3"},{"bufferView":1,"byteOffset":528,"componentType":5126,"count":4,"type":"VEC3"},{"bufferView":1,"byteOffset":576,"componentType":5126,"count":4,"type":"VEC3"},{"bufferView":1,"byteOffset":624,"componentType":5126,"count":4,"type":"VEC3"},{"bufferView":1,"byteOffset":672,"componentType":5126,"count":4,"type":"VEC3"},{"bufferView":1,"byteOffset":720,"componentType":5126,"count":4,"type":"VEC3"},{"bufferView":1,"byteOffset":768,"componentType":5126,"count":4,"type":"VEC3"},{"bufferView":1,"byteOffset":816,"componentType":5126,"count":4,"type":"VEC3"},{"bufferView":1,"byteOffset":864,"componentType":5126,"count":4,"type":"VEC3"},{"bufferView":1,"byteOffset":912,"componentType":5126,"count":4,"type":"VEC3"},{"bufferView":1,"byteOffset":960,"componentType":5126,"count":16,"type":"VEC3"},{"bufferView":1,"byteOffset":1152,"componentType":5126,"count":8,"type":"VEC3"},{"bufferView":1,"byteOffset":1248,"componentType":5126,"count":4,"type":"VEC3"},{"bufferView":1,"byteOffset":1296,"componentType":5126,"count":4,"type":"VEC3"},{"bufferView":1,"byteOffset":1344,"componentType":5126,"count":4,"type":"VEC3"},{"bufferView":1,"byteOffset":1392,"componentType":5126,"count":4,"type":"VEC3"},{"bufferView":1,"byteOffset":1440,"componentType":5126,"count":4,"type":"VEC3"},{"bufferView":1,"byteOffset":1488,"componentType":5126,"count":4,"type":"VEC3"},{"bufferView":1,"byteOffset":1536,"componentType":5126,"count":4,"type":"VEC3"},{"bufferView":1,"byteOffset":1584,"componentType":5126,"count":4,"type":"VEC3"},{"bufferView":1,"byteOffset":1632,"componentType":5126,"count":4,"type":"VEC3"},{"bufferView":1,"byteOffset":1680,"componentType":5126,"count":4,"type":"VEC3"},{"bufferView":2,"byteOffset":0,"componentType":5123,"count":48,"type":"SCALAR"},{"bufferView":2,"byteOffset":96,"componentType":5123,"count":6,"type":"SCALAR"},{"bufferView":2,"byteOffset":108,"componentType":5123,"count":6,"type":"SCALAR"},{"bufferView":2,"byteOffset":120,"componentType":5123,"count":6,"type":"SCALAR"},{"bufferView":2,"byteOffset":132,"componentType":5123,"count":6,"type":"SCALAR"},{"bufferView":2,"byteOffset":144,"componentType":5123,"count":6,"type":"SCALAR"},{"bufferView":2,"byteOffset":156,"componentType":5123,"count":6,"type":"SCALAR"},{"bufferView":2,"byteOffset":168,"componentType":5123,"count":6,"type":"SCALAR"},{"bufferView":2,"byteOffset":180,"componentType":5123,"count":6,"type":"SCALAR"},{"bufferView":2,"byteOffset":192,"componentType":5123,"count":6,"type":"SCALAR"},{"bufferView":2,"byteOffset":204,"componentType":5123,"count":6,"type":"SCALAR"},{"bufferView":2,"byteOffset":216,"componentType":5123,"count":6,"type":"SCALAR"},{"bufferView":2,"byteOffset":228,"componentType":5123,"count":6,"type":"SCALAR"},{"bufferView":2,"byteOffset":240,"componentType":5123,"count":6,"type":"SCALAR"},{"bufferView":2,"byteOffset":252,"componentType":5123,"count":6,"type":"SCALAR"},{"bufferView":2,"byteOffset":264,"componentType":5123,"count":6,"type":"SCALAR"},{"bufferView":2,"byteOffset":276,"componentType":5123,"count":6,"type":"SCALAR"},{"bufferView":2,"byteOffset":288,"componentType":5123,"count":54,"type":"SCALAR"},{"bufferView":2,"byteOffset":396,"componentType":5123,"count":18,"type":"SCALAR"},{"bufferView":2,"byteOffset":432,"componentType":5123,"count":6,"type":"SCALAR"},{"bufferView":2,"byteOffset":444,"componentType":5123,"count":6,"type":"SCALAR"},{"bufferView":2,"byteOffset":456,"componentType":5123,"count":6,"type":"SCALAR"},{"bufferView":2,"byteOffset":468,"componentType":5123,"count":6,"type":"SCALAR"},{"bufferView":2,"byteOffset":480,"componentType":5123,"count":6,"type":"SCALAR"},{"bufferView":2,"byteOffset":492,"componentType":5123,"count":6,"type":"SCALAR"},{"bufferView":2,"byteOffset":504,"componentType":5123,"count":6,"type":"SCALAR"},{"bufferView":2,"byteOffset":516,"componentType":5123,"count":6,"type":"SCALAR"},{"bufferView":2,"byteOffset":528,"componentType":5123,"count":6,"type":"SCALAR"},{"bufferView":2,"byteOffset":540,"componentType":5123,"count":6,"type":"SCALAR"}],"asset":{"generator":"Open CASCADE Technology 7.8 [dev.opencascade.org]","version":"2.0"},"bufferViews":[{"buffer":0,"byteLength":1728,"byteOffset":0,"byteStride":12,"target":34962},{"buffer":0,"byteLength":1728,"byteOffset":1728,"byteStride":12,"target":34962},{"buffer":0,"byteLength":552,"byteOffset":3456,"target":34963}],"buffers":[{"byteLength":4008,"uri":"GPS-GPS.bin"}],"materials":[{"name":"mat_0","pbrMetallicRoughness":{"baseColorFactor":[0.16826939582824707,0.19120168685913086,0.2158605307340622,1.0]},"doubleSided":true}],"meshes":[{"name":"GPS","primitives":[{"attributes":{"NORMAL":29,"POSITION":0},"indices":58,"material":0,"mode":4},{"attributes":{"NORMAL":30,"POSITION":1},"indices":59,"material":0,"mode":4},{"attributes":{"NORMAL":31,"POSITION":2},"indices":60,"material":0,"mode":4},{"attributes":{"NORMAL":32,"POSITION":3},"indices":61,"material":0,"mode":4},{"attributes":{"NORMAL":33,"POSITION":4},"indices":62,"material":0,"mode":4},{"attributes":{"NORMAL":34,"POSITION":5},"indices":63,"material":0,"mode":4},{"attributes":{"NORMAL":35,"POSITION":6},"indices":64,"material":0,"mode":4},{"attributes":{"NORMAL":36,"POSITION":7},"indices":65,"material":0,"mode":4},{"attributes":{"NORMAL":37,"POSITION":8},"indices":66,"material":0,"mode":4},{"attributes":{"NORMAL":38,"POSITION":9},"indices":67,"material":0,"mode":4},{"attributes":{"NORMAL":39,"POSITION":10},"indices":68,"material":0,"mode":4},{"attributes":{"NORMAL":40,"POSITION":11},"indices":69,"material":0,"mode":4},{"attributes":{"NORMAL":41,"POSITION":12},"indices":70,"material":0,"mode":4},{"attributes":{"NORMAL":42,"POSITION":13},"indices":71,"material":0,"mode":4},{"attributes":{"NORMAL":43,"POSITION":14},"indices":72,"material":0,"mode":4},{"attributes":{"NORMAL":44,"POSITION":15},"indices":73,"material":0,"mode":4},{"attributes":{"NORMAL":45,"POSITION":16},"indices":74,"material":0,"mode":4},{"attributes":{"NORMAL":46,"POSITION":17},"indices":75,"material":0,"mode":4},{"attributes":{"NORMAL":47,"POSITION":18},"indices":76,"material":0,"mode":4},{"attributes":{"NORMAL":48,"POSITION":19},"indices":77,"material":0,"mode":4},{"attributes":{"NORMAL":49,"POSITION":20},"indices":78,"material":0,"mode":4},{"attributes":{"NORMAL":50,"POSITION":21},"indices":79,"material":0,"mode":4},{"attributes":{"NORMAL":51,"POSITION":22},"indices":80,"material":0,"mode":4},{"attributes":{"NORMAL":52,"POSITION":23},"indices":81,"material":0,"mode":4},{"attributes":{"NORMAL":53,"POSITION":24},"indices":82,"material":0,"mode":4},{"attributes":{"NORMAL":54,"POSITION":25},"indices":83,"material":0,"mode":4},{"attributes":{"NORMAL":55,"POSITION":26},"indices":84,"material":0,"mode":4},{"attributes":{"NORMAL":56,"POSITION":27},"indices":85,"material":0,"mode":4},{"attributes":{"NORMAL":57,"POSITION":28},"indices":86,"material":0,"mode":4}]}],"nodes":[{"mesh":0,"name":"GPS"}],"scene":0,"scenes":[{"nodes":[0]}]}