{"accessors":[{"bufferView":0,"byteOffset":0,"componentType":5126,"count":4,"max":[0.006750000000000001,0.003,0.0072499999999999995],"min":[-0.006749999999999999,0.0,0.0072499999999999995],"type":"VEC3"},{"bufferView":0,"byteOffset":48,"componentType":5126,"count":4,"max":[0.006750000000000001,0.003,0.0072499999999999995],"min":[0.006750000000000001,0.0,-0.007250000000000001],"type":"VEC3"},{"bufferView":0,"byteOffset":96,"componentType":5126,"count":4,"max":[0.006750000000000001,0.003,-0.007250000000000001],"min":[-0.006749999999999999,0.0,-0.007250000000000001],"type":"VEC3"},{"bufferView":0,"byteOffset":144,"componentType":5126,"count":4,"max":[-0.006749999999999999,0.003,0.0072499999999999995],"min":[-0.006749999999999999,0.0,-0.007250000000000001],"type":"VEC3"},{"bufferView":0,"byteOffset":192,"componentType":5126,"count":228,"max":[0.00275,0.003,0.006635512347578478],"min":[0.0017501932212527229,0.0,0.0056356089628720974],"type":"VEC3"},{"bufferView":0,"byteOffset":2928,"componentType":5126,"count":228,"max":[0.0005,0.003,0.006635512347578478],"min":[-0.000499806778747277,0.0,0.0056356089628720974],"type":"VEC3"},{"bufferView":0,"byteOffset":5664,"componentType":5126,"count":228,"max":[0.005,0.003,0.006635512347578478],"min":[0.004000193221252724,0.0,0.0056356089628720974],"type":"VEC3"},{"bufferView":0,"byteOffset":8400,"componentType":5126,"count":228,"max":[-0.00175,0.003,0.006635512347578478],"min":[-0.0027498067787472768,0.0,0.0056356089628720974],"type":"VEC3"},{"bufferView":0,"byteOffset":11136,"componentType":5126,"count":228,"max":[-0.004,0.003,0.006635512347578478],"min":[-0.004999806778747277,0.0,0.0056356089628720974],"type":"VEC3"},{"bufferView":0,"byteOffset":13872,"componentType":5126,"count":569,"max":[0.006750000000000001,0.0,0.0072499999999999995],"min":[-0.006749999999999999,0.0,-0.007250000000000001],"type":"VEC3"},{"bufferView":0,"byteOffset":20700,"componentType":5126,"count":569,"max":[0.006750000000000001,0.003,0.0072499999999999995],"min":[-0.006749999999999999,0.003,-0.007250000000000001],"type":"VEC3"},{"bufferView":1,"byteOffset":0,"componentType":5126,"count":4,"type":"VEC3"},{"bufferView":1,"byteOffset":48,"componentType":5126,"count":4,"type":"VEC3"},{"bufferView":1,"byteOffset":96,"componentType":5126,"count":4,"type":"VEC3"},{"bufferView":1,"byteOffset":144,"componentType":5126,"count":4,"type":"VEC3"},{"bufferView":1,"byteOffset":192,"componentType":5126,"count":228,"type":"VEC3"},{"bufferView":1,"byteOffset":2928,"componentType":5126,"count":228,"type":"VEC3"},{"bufferView":1,"byteOffset":5664,"componentType":5126,"count":228,"type":"VEC3"},{"bufferView":1,"byteOffset":8400,"componentType":5126,"count":228,"type":"VEC3"},{"bufferView":1,"byteOffset":11136,"componentType":5126,"count":228,"type":"VEC3"},{"bufferView":1,"byteOffset":13872,"componentType":5126,"count":569,"type":"VEC3"},{"bufferView":1,"byteOffset":20700,"componentType":5126,"count":569,"type":"VEC3"},{"bufferView":2,"byteOffset":0,"componentType":5123,"count":6,"type":"SCALAR"},{"bufferView":2,"byteOffset":12,"componentType":5123,"count":6,"type":"SCALAR"},{"bufferView":2,"byteOffset":24,"componentType":5123,"count":6,"type":"SCALAR"},{"bufferView":2,"byteOffset":36,"componentType":5123,"count":6,"type":"SCALAR"},{"bufferView":2,"byteOffset":48,"componentType":5123,"count":678,"type":"SCALAR"},{"bufferView":2,"byteOffset":1404,"componentType":5123,"count":678,"type":"SCALAR"},{"bufferView":2,"byteOffset":2760,"componentType":5123,"count":678,"type":"SCALAR"},{"bufferView":2,"byteOffset":4116,"componentType":5123,"count":678,"type":"SCALAR"},{"bufferView":2,"byteOffset":5472,"componentType":5123,"count":678,"type":"SCALAR"},{"bufferView":2,"byteOffset":6828,"componentType":5123,"count":1731,"type":"SCALAR"},{"bufferView":2,"byteOffset":10292,"componentType":5123,"count":1731,"type":"SCALAR"}],"asset":{"generator":"Open CASCADE Technology 7.8 [dev.opencascade.org]","version":"2.0"},"bufferViews":[{"buffer":0,"byteLength":27528,"byteOffset":0,"byteStride":12,"target":34962},{"buffer":0,"byteLength":27528,"byteOffset":27528,"byteStride":12,"target":34962},{"buffer":0,"byteLength":13756,"byteOffset":55056,"target":34963}],"buffers":[{"byteLength":68812,"uri":"Sensor_HW-246-HW-246.bin"}],"materials":[{"name":"mat_0","pbrMetallicRoughness":{"baseColorFactor":[0.0,0.052860651165246964,0.6172065734863281,1.0]},"doubleSided":true}],"meshes":[{"name":"HW-246","primitives":[{"attributes":{"NORMAL":11,"POSITION":0},"indices":22,"material":0,"mode":4},{"attributes":{"NORMAL":12,"POSITION":1},"indices":23,"material":0,"mode":4},{"attributes":{"NORMAL":13,"POSITION":2},"indices":24,"material":0,"mode":4},{"attributes":{"NORMAL":14,"POSITION":3},"indices":25,"material":0,"mode":4},{"attributes":{"NORMAL":15,"POSITION":4},"indices":26,"material":0,"mode":4},{"attributes":{"NORMAL":16,"POSITION":5},"indices":27,"material":0,"mode":4},{"attributes":{"NORMAL":17,"POSITION":6},"indices":28,"material":0,"mode":4},{"attributes":{"NORMAL":18,"POSITION":7},"indices":29,"material":0,"mode":4},{"attributes":{"NORMAL":19,"POSITION":8},"indices":30,"material":0,"mode":4},{"attributes":{"NORMAL":20,"POSITION":9},"indices":31,"material":0,"mode":4},{"attributes":{"NORMAL":21,"POSITION":10},"indices":32,"material":0,"mode":4}]}],"nodes":[{"mesh":0,"name":"HW-246"}],"scene":0,"scenes":[{"nodes":[0]}]}